<svg width="615" height="399" viewBox="0 0 615 399" fill="none" xmlns="http://www.w3.org/2000/svg">
<g filter="url(#filter0_d_128_22270)">
<rect x="172.654" y="82.0273" width="70.8227" height="70.8227" rx="5.51417" fill="url(#paint0_linear_128_22270)" fill-opacity="0.95" shape-rendering="crispEdges"/>
</g>
<g filter="url(#filter1_d_128_22270)">
<rect x="172.654" y="52.4701" width="40.4701" height="40.4701" rx="7.71984" transform="rotate(-90 172.654 52.4701)" fill="url(#paint1_linear_128_22270)"/>
</g>
<path d="M312.923 100.142H313.997C316.861 74.1338 339.775 53.7491 366.985 53.7491C376.294 53.7491 385.245 56.2093 393.121 60.4269C403.504 39.6907 424.986 25.2809 450.406 25.2809C485.493 25.2809 513.777 53.0462 513.777 87.4893C513.777 92.4097 513.061 96.9787 512.345 101.548C531.679 105.765 546 122.987 546 143.02C546 166.568 526.308 185.898 502.32 185.898L495.16 185.547H320.441L312.923 185.898C288.935 185.898 269.243 166.919 269.243 143.02C269.243 119.121 288.935 100.142 312.923 100.142Z" fill="url(#paint2_linear_128_22270)"/>
<g filter="url(#filter2_b_128_22270)">
<path d="M222.984 241.977H222.334C220.603 226.256 206.753 213.935 190.306 213.935C184.679 213.935 179.269 215.422 174.508 217.971C168.232 205.437 155.247 196.727 139.882 196.727C118.674 196.727 101.578 213.51 101.578 234.329C101.578 237.303 102.011 240.065 102.444 242.827C90.7574 245.376 82.101 255.785 82.101 267.894C82.101 282.128 94.0035 293.812 108.503 293.812L112.831 293.599H218.439L222.984 293.812C237.483 293.812 249.386 282.34 249.386 267.894C249.386 253.448 237.483 241.977 222.984 241.977Z" fill="url(#paint3_linear_128_22270)" fill-opacity="0.02"/>
</g>
<path d="M222.984 241.977H222.334C220.603 226.256 206.753 213.935 190.306 213.935C184.679 213.935 179.269 215.422 174.508 217.971C168.232 205.437 155.247 196.727 139.882 196.727C118.674 196.727 101.578 213.51 101.578 234.329C101.578 237.303 102.011 240.065 102.444 242.827C90.7574 245.376 82.101 255.785 82.101 267.894C82.101 282.128 94.0035 293.812 108.503 293.812L112.831 293.599H218.439L222.984 293.812C237.483 293.812 249.386 282.34 249.386 267.894C249.386 253.448 237.483 241.977 222.984 241.977Z" fill="url(#paint4_linear_128_22270)"/>
<g filter="url(#filter3_d_128_22270)">
<path d="M303.644 328.328C297.511 332.555 289.405 332.556 283.272 328.329L206.98 275.753C202.119 272.403 199.216 266.877 199.216 260.973V131.402C199.216 123.85 203.966 117.164 211.293 115.331C226.262 111.588 254.64 106.175 293.579 106.175C332.489 106.175 360.744 111.58 375.647 115.323C382.956 117.159 387.687 123.834 387.687 131.371V260.974C387.687 266.877 384.784 272.403 379.924 275.753L303.644 328.328Z" fill="url(#paint5_linear_128_22270)"/>
</g>
<g style="mix-blend-mode:overlay">
<path d="M350.181 214.169C350.181 205.956 346.81 198.079 340.809 192.272C334.808 186.464 326.669 183.201 318.182 183.201C316.392 183.232 314.609 183.404 312.849 183.717C310.375 176.834 305.473 171.016 299.004 167.285C292.535 163.555 284.913 162.152 277.481 163.324C270.049 164.495 263.281 168.166 258.37 173.69C253.458 179.214 250.716 186.237 250.628 193.524C250.65 197.269 251.385 200.979 252.796 204.466C247.766 205.685 243.367 208.635 240.421 212.764C237.475 216.894 236.185 221.921 236.79 226.905C237.396 231.888 239.856 236.488 243.712 239.844C247.567 243.2 252.554 245.081 257.739 245.138H321.737V244.794C329.533 243.95 336.737 240.365 341.98 234.719C347.224 229.074 350.143 221.761 350.181 214.169Z" fill="url(#paint6_linear_128_22270)"/>
</g>
<g opacity="0.3" filter="url(#filter4_d_128_22270)">
<rect x="125.388" y="88.2733" width="40.4701" height="40.4701" rx="7.71984" transform="rotate(-90 125.388 88.2733)" fill="url(#paint7_linear_128_22270)" fill-opacity="0.95" shape-rendering="crispEdges"/>
</g>
<g opacity="0.2" filter="url(#filter5_d_128_22270)">
<rect x="78.1725" y="154.599" width="70.8227" height="70.8227" rx="11.0283" transform="rotate(-90 78.1725 154.599)" fill="url(#paint8_linear_128_22270)" fill-opacity="0.95" shape-rendering="crispEdges"/>
</g>
<g filter="url(#filter6_d_128_22270)">
<rect x="103.834" y="175.705" width="39.3459" height="39.3459" rx="11.0283" transform="rotate(-90 103.834 175.705)" fill="url(#paint9_linear_128_22270)"/>
</g>
<g filter="url(#filter7_d_128_22270)">
<rect x="399.639" y="196.727" width="32.6009" height="32.6009" rx="5.51417" fill="url(#paint10_linear_128_22270)" fill-opacity="0.95" shape-rendering="crispEdges"/>
</g>
<g opacity="0.2" filter="url(#filter8_d_128_22270)">
<rect x="454.389" y="220.875" width="32.6009" height="32.6009" rx="5.51417" fill="url(#paint11_linear_128_22270)" fill-opacity="0.95" shape-rendering="crispEdges"/>
</g>
<g opacity="0.8" filter="url(#filter9_d_128_22270)">
<rect x="427.408" y="241.11" width="40.4701" height="40.4701" rx="7.71984" fill="url(#paint12_linear_128_22270)"/>
</g>
<defs>
<filter id="filter0_d_128_22270" x="161.625" y="70.999" width="92.8794" height="92.8793" filterUnits="userSpaceOnUse" color-interpolation-filters="sRGB">
<feFlood flood-opacity="0" result="BackgroundImageFix"/>
<feColorMatrix in="SourceAlpha" type="matrix" values="0 0 0 0 0 0 0 0 0 0 0 0 0 0 0 0 0 0 127 0" result="hardAlpha"/>
<feOffset/>
<feGaussianBlur stdDeviation="5.51417"/>
<feComposite in2="hardAlpha" operator="out"/>
<feColorMatrix type="matrix" values="0 0 0 0 0.129412 0 0 0 0 0.129412 0 0 0 0 0.298039 0 0 0 0.2 0"/>
<feBlend mode="normal" in2="BackgroundImageFix" result="effect1_dropShadow_128_22270"/>
<feBlend mode="normal" in="SourceGraphic" in2="effect1_dropShadow_128_22270" result="shape"/>
</filter>
<filter id="filter1_d_128_22270" x="161.625" y="0.971652" width="62.5268" height="62.5268" filterUnits="userSpaceOnUse" color-interpolation-filters="sRGB">
<feFlood flood-opacity="0" result="BackgroundImageFix"/>
<feColorMatrix in="SourceAlpha" type="matrix" values="0 0 0 0 0 0 0 0 0 0 0 0 0 0 0 0 0 0 127 0" result="hardAlpha"/>
<feOffset/>
<feGaussianBlur stdDeviation="5.51417"/>
<feComposite in2="hardAlpha" operator="out"/>
<feColorMatrix type="matrix" values="0 0 0 0 0.129412 0 0 0 0 0.129412 0 0 0 0 0.298039 0 0 0 0.2 0"/>
<feBlend mode="normal" in2="BackgroundImageFix" result="effect1_dropShadow_128_22270"/>
<feBlend mode="normal" in="SourceGraphic" in2="effect1_dropShadow_128_22270" result="shape"/>
</filter>
<filter id="filter2_b_128_22270" x="68.6056" y="183.232" width="194.276" height="124.075" filterUnits="userSpaceOnUse" color-interpolation-filters="sRGB">
<feFlood flood-opacity="0" result="BackgroundImageFix"/>
<feGaussianBlur in="BackgroundImage" stdDeviation="6.74773"/>
<feComposite in2="SourceAlpha" operator="in" result="effect1_backgroundBlur_128_22270"/>
<feBlend mode="normal" in="SourceGraphic" in2="effect1_backgroundBlur_128_22270" result="shape"/>
</filter>
<filter id="filter3_d_128_22270" x="151.064" y="77.2839" width="284.775" height="321.627" filterUnits="userSpaceOnUse" color-interpolation-filters="sRGB">
<feFlood flood-opacity="0" result="BackgroundImageFix"/>
<feColorMatrix in="SourceAlpha" type="matrix" values="0 0 0 0 0 0 0 0 0 0 0 0 0 0 0 0 0 0 127 0" result="hardAlpha"/>
<feOffset dy="19.2607"/>
<feGaussianBlur stdDeviation="24.0759"/>
<feColorMatrix type="matrix" values="0 0 0 0 0.129412 0 0 0 0 0.129412 0 0 0 0 0.298039 0 0 0 0.2 0"/>
<feBlend mode="normal" in2="BackgroundImageFix" result="effect1_dropShadow_128_22270"/>
<feBlend mode="normal" in="SourceGraphic" in2="effect1_dropShadow_128_22270" result="shape"/>
</filter>
<filter id="filter4_d_128_22270" x="114.359" y="36.7749" width="62.5268" height="62.5268" filterUnits="userSpaceOnUse" color-interpolation-filters="sRGB">
<feFlood flood-opacity="0" result="BackgroundImageFix"/>
<feColorMatrix in="SourceAlpha" type="matrix" values="0 0 0 0 0 0 0 0 0 0 0 0 0 0 0 0 0 0 127 0" result="hardAlpha"/>
<feOffset/>
<feGaussianBlur stdDeviation="5.51417"/>
<feComposite in2="hardAlpha" operator="out"/>
<feColorMatrix type="matrix" values="0 0 0 0 0.129412 0 0 0 0 0.129412 0 0 0 0 0.298039 0 0 0 0.2 0"/>
<feBlend mode="normal" in2="BackgroundImageFix" result="effect1_dropShadow_128_22270"/>
<feBlend mode="normal" in="SourceGraphic" in2="effect1_dropShadow_128_22270" result="shape"/>
</filter>
<filter id="filter5_d_128_22270" x="67.1442" y="72.7485" width="92.8794" height="92.8793" filterUnits="userSpaceOnUse" color-interpolation-filters="sRGB">
<feFlood flood-opacity="0" result="BackgroundImageFix"/>
<feColorMatrix in="SourceAlpha" type="matrix" values="0 0 0 0 0 0 0 0 0 0 0 0 0 0 0 0 0 0 127 0" result="hardAlpha"/>
<feOffset/>
<feGaussianBlur stdDeviation="5.51417"/>
<feComposite in2="hardAlpha" operator="out"/>
<feColorMatrix type="matrix" values="0 0 0 0 0.129412 0 0 0 0 0.129412 0 0 0 0 0.298039 0 0 0 0.2 0"/>
<feBlend mode="normal" in2="BackgroundImageFix" result="effect1_dropShadow_128_22270"/>
<feBlend mode="normal" in="SourceGraphic" in2="effect1_dropShadow_128_22270" result="shape"/>
</filter>
<filter id="filter6_d_128_22270" x="92.8054" y="125.331" width="61.4026" height="61.4026" filterUnits="userSpaceOnUse" color-interpolation-filters="sRGB">
<feFlood flood-opacity="0" result="BackgroundImageFix"/>
<feColorMatrix in="SourceAlpha" type="matrix" values="0 0 0 0 0 0 0 0 0 0 0 0 0 0 0 0 0 0 127 0" result="hardAlpha"/>
<feOffset/>
<feGaussianBlur stdDeviation="5.51417"/>
<feComposite in2="hardAlpha" operator="out"/>
<feColorMatrix type="matrix" values="0 0 0 0 0.129412 0 0 0 0 0.129412 0 0 0 0 0.298039 0 0 0 0.2 0"/>
<feBlend mode="normal" in2="BackgroundImageFix" result="effect1_dropShadow_128_22270"/>
<feBlend mode="normal" in="SourceGraphic" in2="effect1_dropShadow_128_22270" result="shape"/>
</filter>
<filter id="filter7_d_128_22270" x="388.611" y="185.699" width="54.6576" height="54.6576" filterUnits="userSpaceOnUse" color-interpolation-filters="sRGB">
<feFlood flood-opacity="0" result="BackgroundImageFix"/>
<feColorMatrix in="SourceAlpha" type="matrix" values="0 0 0 0 0 0 0 0 0 0 0 0 0 0 0 0 0 0 127 0" result="hardAlpha"/>
<feOffset/>
<feGaussianBlur stdDeviation="5.51417"/>
<feComposite in2="hardAlpha" operator="out"/>
<feColorMatrix type="matrix" values="0 0 0 0 0.129412 0 0 0 0 0.129412 0 0 0 0 0.298039 0 0 0 0.2 0"/>
<feBlend mode="normal" in2="BackgroundImageFix" result="effect1_dropShadow_128_22270"/>
<feBlend mode="normal" in="SourceGraphic" in2="effect1_dropShadow_128_22270" result="shape"/>
</filter>
<filter id="filter8_d_128_22270" x="443.36" y="209.846" width="54.6576" height="54.6576" filterUnits="userSpaceOnUse" color-interpolation-filters="sRGB">
<feFlood flood-opacity="0" result="BackgroundImageFix"/>
<feColorMatrix in="SourceAlpha" type="matrix" values="0 0 0 0 0 0 0 0 0 0 0 0 0 0 0 0 0 0 127 0" result="hardAlpha"/>
<feOffset/>
<feGaussianBlur stdDeviation="5.51417"/>
<feComposite in2="hardAlpha" operator="out"/>
<feColorMatrix type="matrix" values="0 0 0 0 0.129412 0 0 0 0 0.129412 0 0 0 0 0.298039 0 0 0 0.2 0"/>
<feBlend mode="normal" in2="BackgroundImageFix" result="effect1_dropShadow_128_22270"/>
<feBlend mode="normal" in="SourceGraphic" in2="effect1_dropShadow_128_22270" result="shape"/>
</filter>
<filter id="filter9_d_128_22270" x="416.38" y="230.081" width="62.5268" height="62.5268" filterUnits="userSpaceOnUse" color-interpolation-filters="sRGB">
<feFlood flood-opacity="0" result="BackgroundImageFix"/>
<feColorMatrix in="SourceAlpha" type="matrix" values="0 0 0 0 0 0 0 0 0 0 0 0 0 0 0 0 0 0 127 0" result="hardAlpha"/>
<feOffset/>
<feGaussianBlur stdDeviation="5.51417"/>
<feComposite in2="hardAlpha" operator="out"/>
<feColorMatrix type="matrix" values="0 0 0 0 0.129412 0 0 0 0 0.129412 0 0 0 0 0.298039 0 0 0 0.2 0"/>
<feBlend mode="normal" in2="BackgroundImageFix" result="effect1_dropShadow_128_22270"/>
<feBlend mode="normal" in="SourceGraphic" in2="effect1_dropShadow_128_22270" result="shape"/>
</filter>
<linearGradient id="paint0_linear_128_22270" x1="186.935" y1="80.7411" x2="260.695" y2="145.593" gradientUnits="userSpaceOnUse">
<stop offset="1.61469e-07" stop-color="#D9DCFA"/>
<stop offset="1" stop-color="#D9DCFA" stop-opacity="0.2"/>
</linearGradient>
<linearGradient id="paint1_linear_128_22270" x1="172.654" y1="52.4701" x2="213.907" y2="92.1253" gradientUnits="userSpaceOnUse">
<stop stop-color="#4BD6B5"/>
<stop offset="1" stop-color="#145DEB"/>
</linearGradient>
<linearGradient id="paint2_linear_128_22270" x1="490.192" y1="22.3638" x2="335.1" y2="257.324" gradientUnits="userSpaceOnUse">
<stop offset="1.61469e-07" stop-color="#D9DCFA"/>
<stop offset="1" stop-color="#D9DCFA" stop-opacity="0.2"/>
</linearGradient>
<linearGradient id="paint3_linear_128_22270" x1="115.834" y1="194.964" x2="209.578" y2="336.985" gradientUnits="userSpaceOnUse">
<stop offset="1.61469e-07" stop-color="#D9DCFA"/>
<stop offset="1" stop-color="#D9DCFA" stop-opacity="0.2"/>
</linearGradient>
<linearGradient id="paint4_linear_128_22270" x1="115.834" y1="194.964" x2="209.578" y2="336.985" gradientUnits="userSpaceOnUse">
<stop offset="1.61469e-07" stop-color="#D9DCFA"/>
<stop offset="1" stop-color="#D9DCFA" stop-opacity="0.2"/>
</linearGradient>
<linearGradient id="paint5_linear_128_22270" x1="387.687" y1="335.349" x2="146.808" y2="198.261" gradientUnits="userSpaceOnUse">
<stop stop-color="#E555AC"/>
<stop offset="1" stop-color="#F99048"/>
</linearGradient>
<linearGradient id="paint6_linear_128_22270" x1="253.035" y1="162.921" x2="380.164" y2="212.374" gradientUnits="userSpaceOnUse">
<stop stop-color="white"/>
<stop offset="1" stop-color="#EBAF14"/>
</linearGradient>
<linearGradient id="paint7_linear_128_22270" x1="133.548" y1="87.5383" x2="175.697" y2="124.596" gradientUnits="userSpaceOnUse">
<stop offset="1.61469e-07" stop-color="#D9DCFA"/>
<stop offset="1" stop-color="#D9DCFA" stop-opacity="0.2"/>
</linearGradient>
<linearGradient id="paint8_linear_128_22270" x1="92.454" y1="153.313" x2="166.214" y2="218.165" gradientUnits="userSpaceOnUse">
<stop offset="1.61469e-07" stop-color="#D9DCFA"/>
<stop offset="1" stop-color="#D9DCFA" stop-opacity="0.2"/>
</linearGradient>
<linearGradient id="paint9_linear_128_22270" x1="143.18" y1="215.051" x2="98.1635" y2="183.899" gradientUnits="userSpaceOnUse">
<stop stop-color="#E555AC"/>
<stop offset="1" stop-color="#F99048"/>
</linearGradient>
<linearGradient id="paint10_linear_128_22270" x1="406.213" y1="196.135" x2="440.166" y2="225.987" gradientUnits="userSpaceOnUse">
<stop offset="1.61469e-07" stop-color="#D9DCFA"/>
<stop offset="1" stop-color="#D9DCFA" stop-opacity="0.2"/>
</linearGradient>
<linearGradient id="paint11_linear_128_22270" x1="460.963" y1="220.283" x2="494.916" y2="250.135" gradientUnits="userSpaceOnUse">
<stop offset="1.61469e-07" stop-color="#D9DCFA"/>
<stop offset="1" stop-color="#D9DCFA" stop-opacity="0.2"/>
</linearGradient>
<linearGradient id="paint12_linear_128_22270" x1="427.408" y1="241.11" x2="475.02" y2="253.013" gradientUnits="userSpaceOnUse">
<stop stop-color="#FFE792"/>
<stop offset="1" stop-color="#43B59A"/>
</linearGradient>
</defs>
</svg>
