<svg data-name="Layer 1" xmlns="http://www.w3.org/2000/svg" xmlns:xlink="http://www.w3.org/1999/xlink" viewBox="0 0 209.76 209.76"><defs><linearGradient id="a" x1="-358.64" y1="-251.54" x2="364.24" y2="306.26" gradientUnits="userSpaceOnUse"><stop offset="0" stop-color="#25387c"/><stop offset="1" stop-color="#b3bcd4"/></linearGradient><linearGradient id="d" x1="-125.7" y1="-133.52" x2="313.45" y2="205.35" xlink:href="#a"/><linearGradient id="e" x1="-372.26" y1="-233.88" x2="350.61" y2="323.91" xlink:href="#a"/><linearGradient id="f" x1="-156.09" y1="-94.13" x2="283.06" y2="244.74" xlink:href="#a"/><linearGradient id="b" x1="147.74" y1="23.69" x2="-46.49" y2="312.25" gradientUnits="userSpaceOnUse"><stop offset="0" stop-color="#252c47" stop-opacity="0"/><stop offset="1" stop-color="#252c47"/></linearGradient><linearGradient id="g" x1="165.61" y1="35.72" x2="-28.62" y2="324.28" xlink:href="#b"/><linearGradient id="h" x1="93.15" y1="8.45" x2="160.54" y2="218.72" gradientUnits="userSpaceOnUse"><stop offset="0" stop-color="#fccfa6"/><stop offset="1" stop-color="#ef7b12"/></linearGradient><linearGradient id="i" x1="67.68" y1="6.08" x2="236.16" y2="311.6" gradientUnits="userSpaceOnUse"><stop offset="0" stop-color="#fff"/><stop offset="1" stop-color="#f8b475"/></linearGradient><linearGradient id="c" x1="3.6" y1="210.82" x2="198.95" y2="52.31" gradientUnits="userSpaceOnUse"><stop offset="0" stop-color="#ef7b12"/><stop offset="1" stop-color="#6e150c"/></linearGradient><linearGradient id="j" x1="13.13" y1="222.57" x2="208.48" y2="64.05" xlink:href="#c"/><linearGradient id="k" x1="8.37" y1="216.69" x2="203.72" y2="58.18" gradientTransform="rotate(75.95 129.01 118.814)" xlink:href="#c"/></defs><path d="M65.24 76.69h30.49V22.31c-21.63 16.23-44.91 27-66.54 27 0 36.4 8.39 73.71 32 99.81V80.75a4.06 4.06 0 0 1 4.05-4.06z" fill="url(#a)" opacity=".8"/><path d="M95.73 76.69h64.86a1.49 1.49 0 0 0 0-.21 215.72 215.72 0 0 0 1.67-27.13c-21.63 0-44.92-10.81-66.55-27v54.34z" fill="url(#d)" opacity=".8"/><path d="M93.8 172.85c.65.29 1.28.6 1.93.88v-97H65.24a4.06 4.06 0 0 0-4.06 4.06v68.41a97.93 97.93 0 0 0 32.62 23.65z" fill="url(#e)" opacity=".8"/><path d="M95.73 82.61v91.12a100.68 100.68 0 0 0 20.37-11.65A96.65 96.65 0 0 0 132.23 147a107.77 107.77 0 0 0 14.22-21.61c.55-1.08 1.09-2.17 1.6-3.27a133.09 133.09 0 0 0 6.1-15.76c1.39-4.34 2.58-8.78 3.58-13.28 1.21-5.38 2.15-10.85 2.86-16.37H95.73z" fill="url(#f)" opacity=".8"/><g opacity=".8"><path d="M93.8 172.85c.65.29 1.28.6 1.93.88v-97H65.24a4.06 4.06 0 0 0-4.06 4.06v68.41a97.93 97.93 0 0 0 32.62 23.65z" fill="url(#b)"/><path d="M95.73 82.61v91.12a100.68 100.68 0 0 0 20.37-11.65A96.65 96.65 0 0 0 132.23 147a107.77 107.77 0 0 0 14.22-21.61c.55-1.08 1.09-2.17 1.6-3.27a133.09 133.09 0 0 0 6.1-15.76c1.39-4.34 2.58-8.78 3.58-13.28 1.21-5.38 2.15-10.85 2.86-16.37H95.73z" fill="url(#g)"/></g><path d="M165.91 181.18a210.24 210.24 0 0 0-32.85-4V169H125v8.18a210 210 0 0 0-32.85 4 2 2 0 1 0 .84 4c.19 0 19-4 36.06-4s35.87 4 36.06 4a2 2 0 1 0 .84-4z" fill="#6e150c"/><path d="M187.78 71.69H70.24a4.06 4.06 0 0 0-4.06 4.06v89.17a4.05 4.05 0 0 0 4.06 4.08h117.54a4.05 4.05 0 0 0 4.06-4.05v-89.2a4.06 4.06 0 0 0-4.06-4.06z" fill="url(#h)"/><rect x="74.29" y="79.8" width="109.44" height="74.99" rx="2.03" fill="url(#i)"/><path d="M117 129.63l-9.41-9.41a2 2 0 0 1 0-2.83L117 108l2.83 2.83-8 8 8 8z" fill="url(#c)"/><path d="M141 129.63l-2.83-2.83 8-8-8-8L141 108l9.41 9.42a2 2 0 0 1 0 2.83z" fill="url(#j)"/><path transform="rotate(-75.95 129.02 118.802)" fill="url(#k)" d="M110.52 116.8h36.98v4h-36.98z"/></svg>