<?xml version="1.0" encoding="UTF-8"?><svg id="Layer_1" xmlns="http://www.w3.org/2000/svg" viewBox="0 0 250 250"><defs><style>.cls-1,.cls-2{fill:#032b75;}.cls-3,.cls-4{fill:#006ac8;}.cls-5{fill:#fff;}.cls-2,.cls-4{opacity:.25;}</style></defs><rect class="cls-5" x="15.8" y="25.58" width="216.49" height="201.63" rx="5" ry="5"/><path class="cls-1" d="M227.29,232.2H20.8c-5.51,0-10-4.49-10-10V30.58c0-5.51,4.49-10,10-10H227.29c5.51,0,10,4.49,10,10V222.2c0,5.51-4.49,10-10,10ZM20.8,30.58V222.2H227.3V30.58H20.8Z"/><circle class="cls-1" cx="39.06" cy="48.99" r="7.22"/><circle class="cls-1" cx="60.73" cy="48.99" r="7.22"/><circle class="cls-1" cx="82.4" cy="48.99" r="7.22"/><rect class="cls-2" x="16.75" y="27.49" width="216.49" height="43.02"/><polygon class="cls-5" points="73.5 103.33 123.39 89.92 172.74 102.32 172.74 153.96 162.36 178.01 135.6 199.16 123.12 203.99 95.78 188.64 79.58 171.18 72.24 144.98 73.5 103.33"/><path class="cls-3" d="M123.44,207.99l-1.38-.49c-.54-.19-13.32-4.78-26.26-14.61-17.51-13.31-26.77-29.89-26.77-47.92v-46.18l54.41-12.72,54.41,12.72v46.18c0,18.04-9.26,34.61-26.77,47.92-12.93,9.83-25.72,14.42-26.26,14.61l-1.38,.49Zm-46.14-102.64v39.61c0,33.73,38.31,51.02,46.14,54.2,7.82-3.18,46.14-20.46,46.14-54.2v-39.61l-46.14-10.79-46.14,10.79Z"/><path class="cls-4" d="M77.3,105.35v39.61c0,33.73,38.31,45.23,46.14,48.41,7.82-3.18,46.14-14.67,46.14-48.41v-39.61l-46.14-10.79-46.14,10.79Z"/><rect class="cls-5" x="105.4" y="139.3" width="36.19" height="25.94"/><circle class="cls-3" cx="123.41" cy="152.11" r="3.08"/><path class="cls-3" d="M139.56,137.31v-9.2c0-7.26-7.23-13.42-16.16-13.42s-16.19,6.15-16.19,13.42v9.2h-3.79v29.7h40v-29.7h-3.88Zm-29.27-9.2c0-5.66,5.91-10.34,13.11-10.34s13.08,4.68,13.08,10.34v9.2h-26.19v-9.2Zm30.07,35.82h-33.85v-23.54h33.85v23.54Z"/></svg>