<svg width="1500" height="1500" viewBox="0 0 1500 1500" fill="none" xmlns="http://www.w3.org/2000/svg">
<path d="M1460.56 1055.09H403.121C386.189 1055.09 372.389 1041.37 372.389 1024.35V264.504H1491.29V1024.44C1491.29 1041.37 1477.58 1055.09 1460.56 1055.09Z" fill="url(#paint0_linear_200_2)"/>
<path d="M1105.23 1055.09H758.535L773.267 1091.75H1090.5L1105.23 1055.09Z" fill="url(#paint1_linear_200_2)"/>
<path d="M1460.56 203.461H403.121C386.189 203.461 372.389 217.176 372.389 234.194V264.504H1491.29V234.194C1491.29 217.176 1477.58 203.461 1460.56 203.461Z" fill="url(#paint2_linear_200_2)"/>
<path d="M417.513 242.406C422.189 242.406 425.979 238.615 425.979 233.94C425.979 229.264 422.189 225.473 417.513 225.473C412.837 225.473 409.047 229.264 409.047 233.94C409.047 238.615 412.837 242.406 417.513 242.406Z" fill="#FFCC00"/>
<path d="M446.042 242.406C450.718 242.406 454.509 238.615 454.509 233.94C454.509 229.264 450.718 225.473 446.042 225.473C441.367 225.473 437.576 229.264 437.576 233.94C437.576 238.615 441.367 242.406 446.042 242.406Z" fill="#FFCC00"/>
<path d="M474.66 242.406C479.335 242.406 483.126 238.615 483.126 233.94C483.126 229.264 479.335 225.473 474.66 225.473C469.984 225.473 466.193 229.264 466.193 233.94C466.193 238.615 469.984 242.406 474.66 242.406Z" fill="#FFCC00"/>
<path d="M1453.62 291.765H410.148V1013.18H1453.62V291.765Z" fill="url(#paint3_linear_200_2)"/>
<path d="M1453.62 291.765H771.236L410.148 652.938V1013.18H1453.62V291.765Z" fill="url(#paint4_linear_200_2)"/>
<path d="M545.779 1013.18H1453.62V291.765H1267.19L545.779 1013.18Z" fill="url(#paint5_linear_200_2)"/>
<path d="M1453.62 601.294L1041.65 1013.18H1453.62V601.294Z" fill="url(#paint6_linear_200_2)"/>
<path d="M1453.62 878.396H410.148V1013.18H1453.62V878.396Z" fill="url(#paint7_linear_200_2)"/>
<path d="M1384.7 968.053H479.065C466.788 968.053 456.883 958.148 456.883 945.872C456.883 933.597 466.788 923.691 479.065 923.691H1384.62C1396.9 923.691 1406.8 933.597 1406.8 945.872C1406.89 958.064 1396.9 968.053 1384.7 968.053Z" fill="url(#paint8_linear_200_2)"/>
<path d="M1246.37 1026.98C1291.21 1026.98 1327.56 990.629 1327.56 945.788C1327.56 900.947 1291.21 864.596 1246.37 864.596C1201.52 864.596 1165.17 900.947 1165.17 945.788C1165.17 990.629 1201.52 1026.98 1246.37 1026.98Z" fill="url(#paint9_linear_200_2)"/>
<path d="M1246.37 1005.98C1279.61 1005.98 1306.56 979.033 1306.56 945.788C1306.56 912.543 1279.61 885.593 1246.37 885.593C1213.12 885.593 1186.17 912.543 1186.17 945.788C1186.17 979.033 1213.12 1005.98 1246.37 1005.98Z" fill="url(#paint10_linear_200_2)"/>
<path d="M1261.61 937.321C1260 937.321 1258.73 936.051 1258.73 934.442V926.823C1258.73 920.05 1253.23 914.462 1246.37 914.462C1239.51 914.462 1234.01 919.965 1234.01 926.823V934.442C1234.01 936.051 1232.74 937.321 1231.13 937.321C1229.52 937.321 1228.25 936.051 1228.25 934.442V926.823C1228.25 916.917 1236.29 908.789 1246.28 908.789C1256.27 908.789 1264.32 916.832 1264.32 926.823V934.442C1264.4 936.051 1263.13 937.321 1261.61 937.321Z" fill="url(#paint11_linear_200_2)"/>
<path d="M1276.17 976.434V937.999C1276.17 934.528 1273.37 931.734 1269.9 931.734H1222.91C1219.44 931.734 1216.56 934.528 1216.56 938.084V976.519C1216.56 979.99 1219.36 982.783 1222.83 982.783H1269.82C1273.37 982.783 1276.17 979.905 1276.17 976.434Z" fill="url(#paint12_linear_200_2)"/>
<path d="M1269.9 931.734H1261.35C1264.82 931.734 1267.62 934.528 1267.62 937.999V976.434C1267.62 979.905 1264.82 982.783 1261.27 982.783H1269.82C1273.29 982.783 1276.17 979.99 1276.17 976.434V937.999C1276.17 934.528 1273.37 931.734 1269.9 931.734Z" fill="url(#paint13_linear_200_2)"/>
<path d="M1246.37 969.069C1244.76 969.069 1243.49 967.799 1243.49 966.19V962.042C1240.19 960.857 1237.81 957.725 1237.81 954C1237.81 949.259 1241.62 945.449 1246.37 945.449C1251.11 945.449 1254.92 949.259 1254.92 954C1254.92 957.725 1252.55 960.857 1249.24 962.042V966.19C1249.24 967.714 1247.97 969.069 1246.37 969.069ZM1246.37 951.121C1244.76 951.121 1243.49 952.391 1243.49 954C1243.49 955.608 1244.76 956.878 1246.37 956.878C1247.97 956.878 1249.24 955.608 1249.24 954C1249.24 952.391 1247.97 951.121 1246.37 951.121Z" fill="url(#paint14_linear_200_2)"/>
<path d="M1361.51 240.12H1446.68C1450.49 240.12 1453.62 236.988 1453.62 233.179C1453.62 229.369 1450.49 226.237 1446.68 226.237H1361.51C1357.7 226.237 1354.56 229.369 1354.56 233.179C1354.56 236.988 1357.7 240.12 1361.51 240.12Z" fill="url(#paint15_linear_200_2)"/>
<path d="M1176.09 1091.75H687.674V1188.18H1176.09V1091.75Z" fill="url(#paint16_linear_200_2)"/>
<path d="M1139.86 1188.18H723.996V1213.91H1139.86V1188.18Z" fill="url(#paint17_linear_200_2)"/>
<path d="M1206.66 1284.61H657.027V1239.4C657.027 1225.34 668.457 1213.91 682.511 1213.91H1181.18C1195.23 1213.91 1206.66 1225.34 1206.66 1239.4V1284.61V1284.61Z" fill="url(#paint18_linear_200_2)"/>
<path d="M1233.83 1284.61H629.933C621.213 1284.61 614.102 1291.72 614.102 1300.44V1313.9C614.102 1322.62 621.213 1329.73 629.933 1329.73H1233.75C1242.47 1329.73 1249.58 1322.62 1249.58 1313.9V1300.44C1249.67 1291.63 1242.55 1284.61 1233.83 1284.61Z" fill="url(#paint19_linear_200_2)"/>
<path d="M1176.09 1091.75H687.674V1139.92H1176.09V1091.75Z" fill="url(#paint20_linear_200_2)"/>
<path d="M724.672 1256.42H708.671C704.692 1256.42 701.475 1253.2 701.475 1249.22C701.475 1245.24 704.692 1242.02 708.671 1242.02H724.672C728.651 1242.02 731.869 1245.24 731.869 1249.22C731.869 1253.2 728.651 1256.42 724.672 1256.42Z" fill="url(#paint21_linear_200_2)"/>
<path d="M768.104 1256.42H752.103C748.123 1256.42 744.906 1253.2 744.906 1249.22C744.906 1245.24 748.123 1242.02 752.103 1242.02H768.104C772.083 1242.02 775.3 1245.24 775.3 1249.22C775.3 1253.2 772.083 1256.42 768.104 1256.42Z" fill="url(#paint22_linear_200_2)"/>
<path d="M1158.06 1256.42H826.86C822.881 1256.42 819.664 1253.2 819.664 1249.22C819.664 1245.24 822.881 1242.02 826.86 1242.02H1158.06C1162.04 1242.02 1165.26 1245.24 1165.26 1249.22C1165.26 1253.2 1162.04 1256.42 1158.06 1256.42Z" fill="url(#paint23_linear_200_2)"/>
<path d="M931.843 743.187C1011.19 743.187 1075.52 678.863 1075.52 599.515C1075.52 520.167 1011.19 455.842 931.843 455.842C852.494 455.842 788.17 520.167 788.17 599.515C788.17 678.863 852.494 743.187 931.843 743.187Z" fill="url(#paint24_linear_200_2)"/>
<path d="M931.843 701.788C988.327 701.788 1034.12 655.999 1034.12 599.515C1034.12 543.031 988.327 497.241 931.843 497.241C875.359 497.241 829.57 543.031 829.57 599.515C829.57 655.999 875.359 701.788 931.843 701.788Z" fill="url(#paint25_linear_200_2)"/>
<path d="M904.158 636.343V562.688C904.158 557.015 910.423 553.629 915.164 556.592L973.243 593.42C977.646 596.214 977.646 602.733 973.243 605.527L915.164 642.354C910.423 645.402 904.158 642.016 904.158 636.343Z" fill="url(#paint26_linear_200_2)"/>
<path d="M653.047 336.468C640.517 385.233 621.383 427.734 605.89 457.197C591.751 484.204 580.745 500.29 580.745 500.29L509.713 406.145L510.729 402.166L540.361 281.945L577.274 132.176L597.085 51.9999C609.531 65.8847 620.029 80.1927 628.749 94.7547C676.076 173.999 672.181 262.472 653.047 336.468Z" fill="url(#paint27_linear_200_2)"/>
<path d="M653.045 336.467C655.415 206.933 600.215 150.124 577.271 132.176L597.083 51.9999C677.004 140.896 675.65 248.841 653.045 336.467Z" fill="url(#paint28_linear_200_2)"/>
<path d="M605.976 457.197C591.837 484.204 580.831 500.29 580.831 500.29L509.799 406.146L540.447 281.946C543.918 332.913 558.057 404.706 605.976 457.197Z" fill="url(#paint29_linear_200_2)"/>
<path opacity="0.3" d="M628.748 94.7549L520.379 408.94L510.812 402.167L540.445 281.945L577.358 132.176L597.084 51.9999C609.53 65.8847 620.028 80.1928 628.748 94.7549Z" fill="#FFCA83"/>
<path d="M278.159 336.468C290.689 385.233 309.823 427.734 325.316 457.197C339.455 484.204 350.461 500.29 350.461 500.29L421.493 406.145L420.477 402.166L390.845 281.945L353.932 132.176L334.121 51.9999C321.676 65.8847 311.177 80.1927 302.457 94.7547C255.215 173.999 259.025 262.472 278.159 336.468Z" fill="url(#paint30_linear_200_2)"/>
<path d="M278.158 336.467C275.788 206.933 330.988 150.124 353.932 132.176L334.12 51.9999C254.283 140.896 255.553 248.841 278.158 336.467Z" fill="url(#paint31_linear_200_2)"/>
<path d="M325.316 457.197C339.455 484.204 350.461 500.29 350.461 500.29L421.493 406.146L390.845 281.946C387.374 332.913 373.151 404.706 325.316 457.197Z" fill="url(#paint32_linear_200_2)"/>
<path opacity="0.3" d="M302.457 94.7549L410.826 408.94L420.393 402.167L390.761 281.945L353.932 132.176L334.121 51.9999C321.676 65.8847 311.262 80.1928 302.457 94.7549Z" fill="#FFCA83"/>
<path d="M601.742 466.764C594.545 448.901 583.878 429.344 567.877 412.834C554.077 398.442 536.382 386.251 513.692 379.139C500.231 374.906 484.907 372.535 467.636 372.535C466.958 372.535 466.281 372.535 465.604 372.535C464.926 372.535 464.249 372.535 463.572 372.535C446.301 372.535 430.977 374.906 417.515 379.139C394.825 386.251 377.131 398.442 363.331 412.834C347.414 429.428 336.662 448.901 329.466 466.764C317.359 496.904 315.242 522.641 315.242 522.641L465.604 596.551L615.965 522.641C615.965 522.641 613.849 496.904 601.742 466.764Z" fill="url(#paint33_linear_200_2)"/>
<path d="M329.549 466.765C341.74 482.766 358.758 496.142 366.631 501.899C369.256 503.847 372.812 504.101 375.775 502.492C386.527 496.566 393.808 489.115 397.872 484.12C400.327 481.072 400.327 476.67 397.872 473.622C375.775 445.684 366.547 422.486 363.414 412.75C347.413 429.429 336.661 448.901 329.549 466.765Z" fill="url(#paint34_linear_200_2)"/>
<path d="M601.743 466.764C589.551 482.766 572.534 496.142 564.66 501.899C562.036 503.846 558.48 504.1 555.517 502.492C544.764 496.566 537.483 489.115 533.42 484.12C530.964 481.072 530.964 476.67 533.42 473.622C555.517 445.684 564.745 422.486 567.877 412.75C583.794 429.429 594.546 448.901 601.743 466.764Z" fill="url(#paint35_linear_200_2)"/>
<path d="M467.636 372.535C466.959 372.535 466.282 372.535 465.604 372.535C464.927 372.535 464.25 372.535 463.572 372.535C446.301 372.535 430.977 374.906 417.516 379.139L428.014 474.892C429.114 484.712 437.496 492.247 447.402 492.247H465.604H483.807C493.712 492.247 502.094 484.797 503.195 474.892L513.693 379.139C500.147 374.906 484.907 372.535 467.636 372.535Z" fill="url(#paint36_linear_200_2)"/>
<path d="M622.314 512.99V582.667H354.355L385.681 513.159H454.427L471.614 530.261L488.885 512.99H622.314Z" fill="url(#paint37_linear_200_2)"/>
<path d="M537.907 512.99V573.524H413.537V513.159H454.429L471.616 530.261L488.887 512.99H537.907Z" fill="url(#paint38_linear_200_2)"/>
<path d="M600.218 556.084V540.505H377.809V577.42H593.276L600.218 556.084Z" fill="url(#paint39_linear_200_2)"/>
<path d="M381.364 569.205H310.585C303.897 569.205 298.479 563.786 298.479 557.098V497.667C298.479 490.979 303.897 485.56 310.585 485.56H381.364C388.052 485.56 393.47 490.979 393.47 497.667V557.098C393.47 563.786 388.052 569.205 381.364 569.205Z" fill="url(#paint40_linear_200_2)"/>
<path d="M664.645 838.52V1329.73H296.869V838.52C308.553 834.795 319.051 830.816 328.533 826.498C355.964 814.137 374.674 799.914 386.951 788.23C387.967 787.299 388.982 786.283 389.914 785.182C394.232 780.441 397.703 775.108 400.073 769.181C403.714 760.207 406.169 748.354 405.153 733.2H551.874C551.281 743.02 552.043 751.402 553.652 758.514C554.753 763.255 556.785 767.657 559.748 771.552C561.695 774.176 564.404 777.478 567.791 781.119C577.612 791.871 593.782 806.179 618.758 819.386C631.542 826.329 646.781 832.848 664.645 838.52Z" fill="url(#paint41_linear_200_2)"/>
<path d="M618.672 819.387C599.707 839.706 514.028 931.057 506.917 931.565C498.958 932.158 315.324 862.48 315.324 862.48L328.532 826.414C355.962 814.053 374.673 799.829 386.949 788.146C387.965 787.215 388.981 786.199 389.912 785.098C403.458 803.47 437.324 842.246 480.84 842.246C524.357 842.246 554.751 802.2 567.789 781.034C577.525 791.871 593.696 806.179 618.672 819.387Z" fill="url(#paint42_linear_200_2)"/>
<path d="M664.728 838.519V1329.73H408.623C408.623 1329.73 362.651 1321.78 316.002 1284.52C309.567 1279.44 303.133 1273.77 296.783 1267.51V838.519C333.188 827.005 358.587 811.681 375.774 797.881C375.943 798.22 376.028 798.558 376.197 798.897C413.787 893.296 547.724 893.296 585.315 798.897C585.484 798.558 585.569 798.22 585.738 797.881C602.84 811.681 628.239 827.005 664.728 838.519Z" fill="url(#paint43_linear_200_2)"/>
<path d="M332.256 1296.46C372.809 1323.55 408.622 1329.82 408.622 1329.82H664.727V1296.46H332.256Z" fill="url(#paint44_linear_200_2)"/>
<path d="M544 930.886V1200.88C544 1209.09 552.551 1214.51 559.917 1211.04L664.645 1162.44V838.518C643.31 831.745 625.784 823.702 611.476 815.405C607.243 845.715 593.359 893.211 549.164 921.404C545.947 923.52 544 927.076 544 930.886Z" fill="url(#paint45_linear_200_2)"/>
<path d="M664.643 913.446C653.891 934.019 636.451 959.672 608.851 984.309C598.945 993.198 591.918 1004.88 588.616 1017.84L584.806 1032.57C579.896 1051.28 567.366 1067.11 550.179 1076.08L543.914 1079.39V1171.84L664.643 1118.41V913.446V913.446Z" fill="url(#paint46_linear_200_2)"/>
<path d="M630.947 825.482C628.492 848.595 619.01 884.068 587.431 923.605C582.351 929.954 583.705 939.182 590.225 943.924C596.151 948.241 604.363 947.31 609.189 941.892C622.989 926.229 648.303 890.502 653.722 834.795C645.509 831.916 637.974 828.784 630.947 825.482Z" fill="url(#paint47_linear_200_2)"/>
<path d="M417.514 930.886V1200.88C417.514 1209.09 408.963 1214.51 401.597 1211.04L296.869 1162.44V838.518C318.204 831.745 335.729 823.702 350.037 815.405C354.271 845.715 368.155 893.211 412.349 921.404C415.567 923.52 417.514 927.076 417.514 930.886Z" fill="url(#paint48_linear_200_2)"/>
<path d="M296.783 913.446C307.535 934.019 324.976 959.672 352.576 984.309C362.482 993.198 369.509 1004.88 372.811 1017.84L376.62 1032.57C381.531 1051.28 394.061 1067.11 411.248 1076.08L417.513 1079.39V1171.84L296.783 1118.41V913.446V913.446Z" fill="url(#paint49_linear_200_2)"/>
<path d="M296.783 1006.32C315.409 1053.48 351.306 1116.3 417.513 1156V1171.67L296.783 1118.24V1006.32Z" fill="url(#paint50_linear_200_2)"/>
<path d="M330.565 825.482C333.021 848.595 342.503 884.068 374.082 923.605C379.162 929.954 377.807 939.182 371.288 943.924C365.362 948.241 357.149 947.31 352.324 941.892C338.524 926.229 313.209 890.502 307.791 834.795C316.003 831.916 323.538 828.784 330.565 825.482Z" fill="url(#paint51_linear_200_2)"/>
<path d="M418.189 1028.76H543.999V966.191H418.189V1028.76Z" fill="url(#paint52_linear_200_2)"/>
<path d="M497.349 982.191H480.755H464.161C460.605 982.191 457.727 985.07 457.727 988.626V1006.24C457.727 1009.79 460.605 1012.67 464.161 1012.67H480.755H497.349C500.905 1012.67 503.783 1009.79 503.783 1006.24V988.626C503.783 985.07 500.905 982.191 497.349 982.191Z" fill="url(#paint53_linear_200_2)"/>
<path d="M418.189 1091.07H543.999V1028.5H418.189V1091.07Z" fill="url(#paint54_linear_200_2)"/>
<path d="M497.349 1044.5H480.755H464.161C460.605 1044.5 457.727 1047.38 457.727 1050.94V1068.55C457.727 1072.1 460.605 1074.98 464.161 1074.98H480.755H497.349C500.905 1074.98 503.783 1072.1 503.783 1068.55V1051.02C503.783 1047.47 500.905 1044.5 497.349 1044.5Z" fill="url(#paint55_linear_200_2)"/>
<path d="M418.189 1153.38H543.999V1090.81H418.189V1153.38Z" fill="url(#paint56_linear_200_2)"/>
<path d="M497.349 1106.9H480.755H464.161C460.605 1106.9 457.727 1109.78 457.727 1113.33V1130.94C457.727 1134.5 460.605 1137.38 464.161 1137.38H480.755H497.349C500.905 1137.38 503.783 1134.5 503.783 1130.94V1113.33C503.783 1109.78 500.905 1106.9 497.349 1106.9Z" fill="url(#paint57_linear_200_2)"/>
<path d="M664.9 838.774C664.9 838.774 765.057 849.865 776.994 928.601C788.847 1007.25 788.085 1034.01 788.085 1034.01C788.085 1034.01 740.589 1064.15 664.9 1067.62V838.774Z" fill="url(#paint58_linear_200_2)"/>
<path d="M776.991 928.6C772.843 901.084 757.942 881.865 740.248 868.489C710.7 885.167 690.805 916.916 690.805 953.237C690.805 969.239 694.699 984.394 701.557 997.686L664.982 1011.82V1067.62C721.707 1064.99 762.599 1047.38 779.531 1038.75C779.616 1038.75 779.616 1038.66 779.701 1038.66C780.039 1038.49 780.463 1038.24 780.801 1038.07C785.627 1035.53 788.167 1033.92 788.167 1033.92C788.167 1033.92 788.844 1007.25 776.991 928.6Z" fill="url(#paint59_linear_200_2)"/>
<path d="M771.066 1042.81V1160.92C771.066 1160.92 775.553 1229.07 689.451 1255.06C603.349 1281.05 409.725 1318.81 409.725 1318.81V1212.39L664.983 1118.58V1067.62C664.899 1067.62 742.873 1060.25 771.066 1042.81Z" fill="url(#paint60_linear_200_2)"/>
<path d="M512.93 1174.38L602.757 1141.44L633.744 1208.84L529.862 1242.79L512.93 1174.38Z" fill="url(#paint61_linear_200_2)"/>
<path d="M770.811 1168.11C769.287 1186.23 758.45 1234.23 689.365 1255.06C688.942 1255.23 688.519 1255.32 688.095 1255.49C682.931 1257.01 677.512 1258.62 671.755 1260.23C668.792 1251.51 667.184 1242.19 667.184 1232.54C667.184 1184.88 705.79 1146.27 753.455 1146.27C759.466 1146.27 765.393 1146.86 771.065 1148.05V1160.92C771.065 1161 771.234 1163.63 770.811 1168.11Z" fill="url(#paint62_linear_200_2)"/>
<path d="M770.813 1168.11C769.289 1186.23 758.452 1234.23 689.367 1255.06C688.944 1255.23 688.52 1255.31 688.097 1255.48C686.573 1249.73 685.727 1243.72 685.727 1237.45C685.727 1198.34 717.475 1166.59 756.589 1166.59C761.5 1166.67 766.241 1167.1 770.813 1168.11Z" fill="url(#paint63_linear_200_2)"/>
<path d="M664.9 1107.66C691.146 1105.71 733.562 1100.38 771.068 1085.82V1042.89C742.79 1060.33 664.9 1067.62 664.9 1067.62V1107.66Z" fill="#F87C38"/>
<path d="M689.451 1255.06C708.161 1249.39 722.639 1241.77 733.814 1233.22L642.717 1160.92L504.716 1217.89L492.609 1301.79C555.853 1288.59 640.177 1269.96 689.451 1255.06Z" fill="url(#paint64_linear_200_2)"/>
<path d="M689.451 1255.06C698.34 1252.35 706.214 1249.22 713.241 1245.83L642.124 1189.36L526.983 1236.94L518.432 1296.46C577.357 1283.76 646.611 1268.01 689.451 1255.06Z" fill="url(#paint65_linear_200_2)"/>
<path d="M580.999 1236.1L543.239 1251.51C541.546 1252.18 539.599 1251.42 538.837 1249.64C538.159 1247.95 538.921 1246 540.699 1245.24L578.459 1229.83C580.152 1229.15 582.1 1229.92 582.862 1231.69C583.539 1233.39 582.777 1235.42 580.999 1236.1Z" fill="url(#paint66_linear_200_2)"/>
<path d="M603.857 1242.53L548.657 1265.05C546.964 1265.73 545.017 1264.97 544.255 1263.19C543.577 1261.5 544.339 1259.55 546.117 1258.79L601.317 1236.27C603.011 1235.59 604.958 1236.35 605.72 1238.13C606.397 1239.91 605.635 1241.85 603.857 1242.53Z" fill="url(#paint67_linear_200_2)"/>
<path d="M717.729 953.153C717.729 991.928 749.054 1023.42 787.829 1023.51C787.152 1009.54 784.782 980.245 776.993 928.516C774.537 912.515 768.526 899.307 760.399 888.47C735.254 899.222 717.729 924.198 717.729 953.153Z" fill="url(#paint68_linear_200_2)"/>
<path d="M743.637 953.152C743.637 976.942 762.347 996.414 785.884 997.599C784.275 981.26 781.566 958.74 776.994 928.516C776.063 922.42 774.623 916.663 772.676 911.329C755.744 917.679 743.637 934.019 743.637 953.152Z" fill="url(#paint69_linear_200_2)"/>
<path d="M390.424 713.049L364.517 706.784C357.236 705.006 350.717 700.857 345.976 694.931C329.297 674.188 320.661 647.519 316.174 623.982C310.417 593.927 311.518 569.205 311.518 569.205H344.536L357.998 611.537L390.424 713.049Z" fill="url(#paint70_linear_200_2)"/>
<path d="M357.996 611.538L354.694 631.18L352.747 642.61L316.173 623.984C315.496 620.428 314.903 616.956 314.395 613.654C310.585 588.509 311.432 569.205 311.432 569.205H344.45L357.996 611.538Z" fill="url(#paint71_linear_200_2)"/>
<path d="M357.996 611.538L354.694 631.181L314.395 613.655C310.585 588.509 311.432 569.205 311.432 569.205H344.45L357.996 611.538Z" fill="url(#paint72_linear_200_2)"/>
<path d="M352.746 652.092C352.746 652.092 362.821 719.99 429.535 756.733L440.88 724.308L380.346 652.092H352.746V652.092Z" fill="url(#paint73_linear_200_2)"/>
<path d="M329.125 601.971C332.632 601.971 335.475 597.65 335.475 592.32C335.475 586.989 332.632 582.668 329.125 582.668C325.618 582.668 322.775 586.989 322.775 592.32C322.775 597.65 325.618 601.971 329.125 601.971Z" fill="url(#paint74_linear_200_2)"/>
<path d="M561.018 713.049L586.924 706.784C594.205 705.006 600.725 700.858 605.466 694.931C622.144 674.188 630.78 647.519 635.267 623.982C641.024 593.927 639.924 569.205 639.924 569.205H606.905L593.444 611.537L561.018 713.049Z" fill="url(#paint75_linear_200_2)"/>
<path d="M593.443 611.538L596.745 631.18L598.692 642.61L635.267 623.984C635.944 620.428 636.537 616.956 637.045 613.655C640.855 588.509 640.008 569.205 640.008 569.205H606.989L593.443 611.538Z" fill="url(#paint76_linear_200_2)"/>
<path d="M593.443 611.538L596.745 631.181L637.045 613.655C640.855 588.509 640.008 569.205 640.008 569.205H606.989L593.443 611.538Z" fill="url(#paint77_linear_200_2)"/>
<path d="M598.693 652.09C598.693 652.09 588.618 719.99 521.903 756.734L510.559 724.223L571.093 652.006H598.693V652.09Z" fill="url(#paint78_linear_200_2)"/>
<path d="M525.543 761.476C525.543 761.476 516.145 767.741 501.837 771.89C494.302 774.091 485.413 775.785 475.761 775.7C466.617 775.615 457.728 773.922 450.108 771.636C435.885 767.403 425.895 761.476 425.895 761.476L435.885 738.362L457.558 744.035L475.676 748.776L494.302 743.865L515.468 738.362L525.543 761.476Z" fill="url(#paint79_linear_200_2)"/>
<path d="M501.754 771.891C494.219 774.092 485.33 775.785 475.678 775.7C466.535 775.616 457.645 773.922 450.025 771.637L457.56 743.952L457.899 742.597L492.78 738.279L494.219 743.782L501.754 771.891Z" fill="url(#paint80_linear_200_2)"/>
<path d="M475.762 593.334H365.531V656.577C399.312 754.786 475.678 757.834 475.762 757.834C475.847 757.834 552.213 754.701 585.994 656.577V593.334H475.762Z" fill="url(#paint81_linear_200_2)"/>
<path d="M622.313 601.971C625.819 601.971 628.662 597.65 628.662 592.32C628.662 586.989 625.819 582.668 622.313 582.668C618.806 582.668 615.963 586.989 615.963 592.32C615.963 597.65 618.806 601.971 622.313 601.971Z" fill="url(#paint82_linear_200_2)"/>
<path d="M481.774 865.612V1122.14C481.774 1234.24 427.166 1337.19 339.032 1400.51C322.946 1412.11 305.76 1422.36 287.557 1431.08C278.667 1435.39 269.609 1439.29 260.296 1442.76L244.887 1448.6L229.478 1442.76C220.165 1439.2 211.022 1435.31 202.217 1431.08C184.014 1422.36 166.828 1412.11 150.742 1400.51C62.523 1337.19 8 1234.24 8 1122.14V865.612C34.4995 865.443 55.9192 843.939 55.9192 817.439H433.855C433.855 844.023 455.274 865.443 481.774 865.612Z" fill="url(#paint83_linear_200_2)"/>
<path d="M401.26 874.501H244.887H88.5148C88.5148 896.428 70.8203 914.208 48.8926 914.377V1126.54C48.8926 1244.48 121.872 1350.05 232.103 1391.79L244.887 1396.62L257.671 1391.79C367.903 1350.05 440.882 1244.39 440.882 1126.54V914.377C418.954 914.208 401.26 896.428 401.26 874.501Z" fill="url(#paint84_linear_200_2)"/>
<path d="M401.259 874.501H339.032C299.663 938.167 275.619 1023 275.619 1116.13C275.619 1204.94 297.462 1286.13 333.529 1348.7C400.074 1295.87 440.796 1214.59 440.796 1126.54V914.377C418.953 914.208 401.259 896.429 401.259 874.501Z" fill="url(#paint85_linear_200_2)"/>
<path d="M401.259 874.501H383.818C344.026 934.188 319.051 1020.38 319.051 1116.13C319.051 1194.02 335.56 1265.48 363.16 1321.61C412.011 1269.96 440.881 1200.71 440.881 1126.54V914.377C418.953 914.208 401.259 896.429 401.259 874.501Z" fill="url(#paint86_linear_200_2)"/>
<path d="M88.5161 874.501H150.743C190.112 938.167 214.156 1023 214.156 1116.13C214.156 1204.94 192.313 1286.13 156.247 1348.7C89.7014 1295.87 48.9785 1214.59 48.9785 1126.54V914.377C70.8216 914.208 88.5161 896.428 88.5161 874.501Z" fill="url(#paint87_linear_200_2)"/>
<path d="M88.5148 874.501H105.955C145.747 934.188 170.723 1020.38 170.723 1116.13C170.723 1194.02 154.213 1265.48 126.613 1321.61C77.7626 1269.96 48.8926 1200.71 48.8926 1126.54V914.377C70.8203 914.208 88.5148 896.428 88.5148 874.501Z" fill="url(#paint88_linear_200_2)"/>
<path d="M244.888 1276.82C333.963 1276.82 406.171 1204.61 406.171 1115.54C406.171 1026.46 333.963 954.253 244.888 954.253C155.814 954.253 83.6055 1026.46 83.6055 1115.54C83.6055 1204.61 155.814 1276.82 244.888 1276.82Z" fill="url(#paint89_linear_200_2)"/>
<path d="M244.887 1233.56C310.068 1233.56 362.908 1180.72 362.908 1115.54C362.908 1050.36 310.068 997.517 244.887 997.517C179.707 997.517 126.867 1050.36 126.867 1115.54C126.867 1180.72 179.707 1233.56 244.887 1233.56Z" fill="url(#paint90_linear_200_2)"/>
<path d="M240.479 1139.33L202.889 1144.49L185.11 1066.68C181.723 1051.7 191.883 1037.05 207.038 1035.02C222.192 1032.9 235.908 1044.33 236.67 1059.66L240.479 1139.33Z" fill="url(#paint91_linear_200_2)"/>
<path d="M251.4 1139.5L288.821 1145.93L309.31 1068.8C313.204 1053.99 303.553 1039 288.483 1036.38C273.413 1033.75 259.274 1044.67 258.004 1059.91L251.4 1139.5Z" fill="url(#paint92_linear_200_2)"/>
<path d="M158.106 1170.74C157.937 1181.07 159.545 1190.97 162.678 1200.2C183.928 1220.86 212.883 1233.56 244.885 1233.56C276.803 1233.56 305.758 1220.86 327.008 1200.2C329.802 1191.9 331.496 1183.01 331.58 1173.7C332.427 1125.78 294.244 1086.24 246.325 1085.4C198.49 1084.63 158.953 1122.82 158.106 1170.74Z" fill="url(#paint93_linear_200_2)"/>
<path d="M214.406 1159.48C214.322 1165.83 210.342 1170.99 205.517 1170.91C200.691 1170.82 196.881 1165.57 197.05 1159.22C197.135 1152.87 201.114 1147.71 205.94 1147.79C210.681 1147.88 214.491 1153.13 214.406 1159.48Z" fill="url(#paint94_linear_200_2)"/>
<path d="M292.297 1160.83C292.212 1167.18 288.233 1172.34 283.407 1172.26C278.581 1172.17 274.772 1166.93 274.941 1160.58C275.11 1154.23 279.005 1149.06 283.831 1149.15C288.572 1149.23 292.382 1154.48 292.297 1160.83Z" fill="url(#paint95_linear_200_2)"/>
<path d="M606.059 562.178L600.217 556.082C515.808 561.924 475.762 562.178 475.762 562.178C475.762 562.178 435.717 561.839 351.308 556.082L345.466 562.178C345.466 562.178 336.915 613.569 352.832 652.091C352.832 652.091 393.47 669.786 438.341 664.283C442.405 663.775 445.961 661.405 447.823 657.764C450.956 651.583 458.576 642.355 475.762 642.355C492.864 642.355 500.484 651.583 503.701 657.764C505.564 661.405 509.204 663.775 513.183 664.283C558.055 669.871 598.693 652.091 598.693 652.091C614.61 613.569 606.059 562.178 606.059 562.178Z" fill="url(#paint96_linear_200_2)"/>
<path d="M584.134 640.576C584.134 640.576 568.556 648.788 530.542 650.058C527.325 650.142 523.938 650.227 520.382 650.227C520.382 650.227 515.98 638.29 503.619 630.416C496.846 626.098 487.787 622.966 475.68 623.643C468.653 623.304 462.727 624.151 457.563 625.844C437.582 632.279 430.978 650.312 430.978 650.312C423.105 650.312 415.993 650.058 409.728 649.55C379.757 647.264 367.227 640.66 367.227 640.66C365.111 637.697 363.417 633.802 362.147 629.4C356.898 611.028 358.168 584.19 358.168 584.19L373.069 570.475C381.366 571.66 391.61 572.591 402.362 573.268C423.105 574.623 445.794 575.216 460.356 575.47C469.669 575.639 475.596 575.639 475.596 575.639C475.596 575.639 481.946 575.639 491.766 575.47C504.297 575.3 522.414 574.792 540.194 573.861C553.994 573.099 567.54 572.083 578.123 570.559L581.594 573.776L593.023 584.275C593.193 584.19 595.14 625.506 584.134 640.576Z" fill="url(#paint97_linear_200_2)"/>
<path d="M460.438 575.47L409.809 649.552C379.838 647.266 367.308 640.662 367.308 640.662C365.192 637.699 363.498 633.804 362.229 629.402L402.443 573.269C423.271 574.624 445.876 575.216 460.438 575.47Z" fill="url(#paint98_linear_200_2)"/>
<path d="M540.36 573.779L503.701 630.417C496.928 626.099 487.869 622.967 475.762 623.644C468.735 623.305 462.809 624.152 457.645 625.845L491.933 575.472C504.378 575.218 522.581 574.71 540.36 573.779Z" fill="url(#paint99_linear_200_2)"/>
<path d="M584.131 640.576C584.131 640.576 568.553 648.788 530.539 650.058L581.675 573.61L593.105 584.108C593.19 584.192 595.137 625.506 584.131 640.576Z" fill="url(#paint100_linear_200_2)"/>
<path d="M475.762 677.745C475.847 677.745 492.864 674.02 493.795 663.945C494.726 653.87 475.847 653.193 475.762 653.193C475.677 653.193 456.797 653.87 457.729 663.945C458.575 674.105 475.593 677.745 475.762 677.745Z" fill="#F87C38"/>
<path d="M476.272 715.248C458.323 715.248 444.269 705.514 443.677 705.175C442.915 704.668 442.745 703.652 443.253 702.975C443.761 702.213 444.777 702.044 445.455 702.551C445.624 702.636 459.339 712.116 476.272 712.116C493.204 712.116 505.819 702.721 505.989 702.636C506.666 702.128 507.682 702.213 508.19 702.975C508.698 703.652 508.613 704.668 507.851 705.175C507.343 705.514 494.22 715.248 476.272 715.248Z" fill="#F87C38"/>
<path d="M348.175 553.373C362.811 553.373 374.675 541.51 374.675 526.875C374.675 512.24 362.811 500.376 348.175 500.376C333.54 500.376 321.676 512.24 321.676 526.875C321.676 541.51 333.54 553.373 348.175 553.373Z" fill="url(#paint101_linear_200_2)"/>
<path d="M348.176 540.591C355.751 540.591 361.892 534.45 361.892 526.875C361.892 519.3 355.751 513.158 348.176 513.158C340.601 513.158 334.461 519.3 334.461 526.875C334.461 534.45 340.601 540.591 348.176 540.591Z" fill="url(#paint102_linear_200_2)"/>
<defs>
<linearGradient id="paint0_linear_200_2" x1="931.881" y1="1393.94" x2="931.881" y2="-20.1307" gradientUnits="userSpaceOnUse">
<stop stop-color="#03192E"/>
<stop offset="0.5" stop-color="#223C6A"/>
<stop offset="1" stop-color="#4A74A2"/>
</linearGradient>
<linearGradient id="paint1_linear_200_2" x1="931.879" y1="724.613" x2="931.879" y2="1234.35" gradientUnits="userSpaceOnUse">
<stop stop-color="white"/>
<stop offset="1" stop-color="#B5E0F7"/>
</linearGradient>
<linearGradient id="paint2_linear_200_2" x1="931.881" y1="348.38" x2="931.881" y2="-77.8387" gradientUnits="userSpaceOnUse">
<stop stop-color="#03192E"/>
<stop offset="0.5" stop-color="#223C6A"/>
<stop offset="1" stop-color="#4A74A2"/>
</linearGradient>
<linearGradient id="paint3_linear_200_2" x1="931.881" y1="1019.25" x2="931.881" y2="-32.2385" gradientUnits="userSpaceOnUse">
<stop stop-color="white"/>
<stop offset="1" stop-color="#B5E0F7"/>
</linearGradient>
<linearGradient id="paint4_linear_200_2" x1="349.599" y1="71.5924" x2="1361.66" y2="1081.26" gradientUnits="userSpaceOnUse">
<stop stop-color="white"/>
<stop offset="1" stop-color="#B5E0F7"/>
</linearGradient>
<linearGradient id="paint5_linear_200_2" x1="580.738" y1="153.626" x2="1509.06" y2="1259" gradientUnits="userSpaceOnUse">
<stop stop-color="white"/>
<stop offset="1" stop-color="#B5E0F7"/>
</linearGradient>
<linearGradient id="paint6_linear_200_2" x1="1791.49" y1="1351.06" x2="1071.3" y2="630.872" gradientUnits="userSpaceOnUse">
<stop stop-color="white"/>
<stop offset="1" stop-color="#B5E0F7"/>
</linearGradient>
<linearGradient id="paint7_linear_200_2" x1="931.881" y1="1193.91" x2="931.881" y2="385.174" gradientUnits="userSpaceOnUse">
<stop stop-color="#386E9F"/>
<stop offset="1" stop-color="white"/>
</linearGradient>
<linearGradient id="paint8_linear_200_2" x1="-251.431" y1="945.813" x2="1345.46" y2="945.813" gradientUnits="userSpaceOnUse">
<stop stop-color="#386E9F"/>
<stop offset="1" stop-color="white"/>
</linearGradient>
<linearGradient id="paint9_linear_200_2" x1="1246.39" y1="1268.71" x2="1246.39" y2="739.496" gradientUnits="userSpaceOnUse">
<stop stop-color="#03192E"/>
<stop offset="0.5" stop-color="#223C6A"/>
<stop offset="1" stop-color="#4A74A2"/>
</linearGradient>
<linearGradient id="paint10_linear_200_2" x1="1246.39" y1="1083.85" x2="1246.39" y2="691.52" gradientUnits="userSpaceOnUse">
<stop stop-color="#03192E"/>
<stop offset="0.5" stop-color="#223C6A"/>
<stop offset="1" stop-color="#4A74A2"/>
</linearGradient>
<linearGradient id="paint11_linear_200_2" x1="1246.39" y1="981.065" x2="1246.39" y2="886.895" gradientUnits="userSpaceOnUse">
<stop stop-color="#FF2A64"/>
<stop offset="1" stop-color="#FFAF48"/>
</linearGradient>
<linearGradient id="paint12_linear_200_2" x1="1246.39" y1="1155" x2="1246.39" y2="913.158" gradientUnits="userSpaceOnUse">
<stop stop-color="#FF2A64"/>
<stop offset="1" stop-color="#FFAF48"/>
</linearGradient>
<linearGradient id="paint13_linear_200_2" x1="1268.79" y1="1055.99" x2="1268.79" y2="902.146" gradientUnits="userSpaceOnUse">
<stop stop-color="#FF2A64"/>
<stop offset="1" stop-color="#FFAF48"/>
</linearGradient>
<linearGradient id="paint14_linear_200_2" x1="1246.39" y1="989.079" x2="1246.39" y2="894.817" gradientUnits="userSpaceOnUse">
<stop stop-color="#03192E"/>
<stop offset="0.5" stop-color="#223C6A"/>
<stop offset="1" stop-color="#4A74A2"/>
</linearGradient>
<linearGradient id="paint15_linear_200_2" x1="1404.1" y1="293.113" x2="1404.1" y2="217.709" gradientUnits="userSpaceOnUse">
<stop stop-color="#108BB4"/>
<stop offset="1" stop-color="#40C67C"/>
</linearGradient>
<linearGradient id="paint16_linear_200_2" x1="931.881" y1="1423.26" x2="931.881" y2="1102.86" gradientUnits="userSpaceOnUse">
<stop stop-color="#03192E"/>
<stop offset="0.5" stop-color="#223C6A"/>
<stop offset="1" stop-color="#4A74A2"/>
</linearGradient>
<linearGradient id="paint17_linear_200_2" x1="931.883" y1="1391.53" x2="931.883" y2="1173.61" gradientUnits="userSpaceOnUse">
<stop stop-color="#FF2A64"/>
<stop offset="1" stop-color="#FFAF48"/>
</linearGradient>
<linearGradient id="paint18_linear_200_2" x1="931.882" y1="1376.12" x2="931.882" y2="1104.76" gradientUnits="userSpaceOnUse">
<stop stop-color="#03192E"/>
<stop offset="0.5" stop-color="#223C6A"/>
<stop offset="1" stop-color="#4A74A2"/>
</linearGradient>
<linearGradient id="paint19_linear_200_2" x1="931.881" y1="1542.28" x2="931.881" y2="1285.61" gradientUnits="userSpaceOnUse">
<stop stop-color="#03192E"/>
<stop offset="0.5" stop-color="#223C6A"/>
<stop offset="1" stop-color="#4A74A2"/>
</linearGradient>
<linearGradient id="paint20_linear_200_2" x1="931.881" y1="939.846" x2="931.881" y2="1223.69" gradientUnits="userSpaceOnUse">
<stop stop-color="#03192E"/>
<stop offset="0.5" stop-color="#223C6A"/>
<stop offset="1" stop-color="#4A74A2"/>
</linearGradient>
<linearGradient id="paint21_linear_200_2" x1="716.647" y1="1404.56" x2="716.647" y2="1203.95" gradientUnits="userSpaceOnUse">
<stop stop-color="#FF2A64"/>
<stop offset="1" stop-color="#FFAF48"/>
</linearGradient>
<linearGradient id="paint22_linear_200_2" x1="760.078" y1="1404.56" x2="760.078" y2="1203.95" gradientUnits="userSpaceOnUse">
<stop stop-color="#FF2A64"/>
<stop offset="1" stop-color="#FFAF48"/>
</linearGradient>
<linearGradient id="paint23_linear_200_2" x1="992.472" y1="1404.56" x2="992.472" y2="1203.95" gradientUnits="userSpaceOnUse">
<stop stop-color="#FF2A64"/>
<stop offset="1" stop-color="#FFAF48"/>
</linearGradient>
<linearGradient id="paint24_linear_200_2" x1="931.882" y1="1124.83" x2="931.882" y2="253.407" gradientUnits="userSpaceOnUse">
<stop stop-color="#03192E"/>
<stop offset="0.5" stop-color="#223C6A"/>
<stop offset="1" stop-color="#4A74A2"/>
</linearGradient>
<linearGradient id="paint25_linear_200_2" x1="931.882" y1="746.494" x2="931.882" y2="193.472" gradientUnits="userSpaceOnUse">
<stop stop-color="#03192E"/>
<stop offset="0.5" stop-color="#223C6A"/>
<stop offset="1" stop-color="#4A74A2"/>
</linearGradient>
<linearGradient id="paint26_linear_200_2" x1="530.757" y1="999.814" x2="1017.64" y2="502.157" gradientUnits="userSpaceOnUse">
<stop stop-color="#FF2A64"/>
<stop offset="1" stop-color="#FFAF48"/>
</linearGradient>
<linearGradient id="paint27_linear_200_2" x1="588.084" y1="1520.74" x2="588.084" y2="106.719" gradientUnits="userSpaceOnUse">
<stop stop-color="#FF2A64"/>
<stop offset="1" stop-color="#FFAF48"/>
</linearGradient>
<linearGradient id="paint28_linear_200_2" x1="621.865" y1="527.822" x2="621.865" y2="-154.103" gradientUnits="userSpaceOnUse">
<stop stop-color="#FF2A64"/>
<stop offset="1" stop-color="#FFAF48"/>
</linearGradient>
<linearGradient id="paint29_linear_200_2" x1="557.853" y1="919.007" x2="557.853" y2="120.883" gradientUnits="userSpaceOnUse">
<stop stop-color="#FF2A64"/>
<stop offset="1" stop-color="#FFAF48"/>
</linearGradient>
<linearGradient id="paint30_linear_200_2" x1="343.154" y1="1520.74" x2="343.154" y2="106.719" gradientUnits="userSpaceOnUse">
<stop stop-color="#FF2A64"/>
<stop offset="1" stop-color="#FFAF48"/>
</linearGradient>
<linearGradient id="paint31_linear_200_2" x1="309.369" y1="527.822" x2="309.369" y2="-154.103" gradientUnits="userSpaceOnUse">
<stop stop-color="#FF2A64"/>
<stop offset="1" stop-color="#FFAF48"/>
</linearGradient>
<linearGradient id="paint32_linear_200_2" x1="373.386" y1="919.007" x2="373.386" y2="120.883" gradientUnits="userSpaceOnUse">
<stop stop-color="#FF2A64"/>
<stop offset="1" stop-color="#FFAF48"/>
</linearGradient>
<linearGradient id="paint33_linear_200_2" x1="465.619" y1="734.507" x2="465.619" y2="194.374" gradientUnits="userSpaceOnUse">
<stop stop-color="#03192E"/>
<stop offset="0.5" stop-color="#223C6A"/>
<stop offset="1" stop-color="#4A74A2"/>
</linearGradient>
<linearGradient id="paint34_linear_200_2" x1="364.579" y1="592.421" x2="364.579" y2="189.246" gradientUnits="userSpaceOnUse">
<stop stop-color="#03192E"/>
<stop offset="0.5" stop-color="#223C6A"/>
<stop offset="1" stop-color="#4A74A2"/>
</linearGradient>
<linearGradient id="paint35_linear_200_2" x1="566.659" y1="592.421" x2="566.659" y2="189.246" gradientUnits="userSpaceOnUse">
<stop stop-color="#03192E"/>
<stop offset="0.5" stop-color="#223C6A"/>
<stop offset="1" stop-color="#4A74A2"/>
</linearGradient>
<linearGradient id="paint36_linear_200_2" x1="465.619" y1="592.42" x2="465.619" y2="189.246" gradientUnits="userSpaceOnUse">
<stop stop-color="#03192E"/>
<stop offset="0.5" stop-color="#223C6A"/>
<stop offset="1" stop-color="#4A74A2"/>
</linearGradient>
<linearGradient id="paint37_linear_200_2" x1="488.376" y1="726.406" x2="488.376" y2="84.7475" gradientUnits="userSpaceOnUse">
<stop stop-color="#386E9F"/>
<stop offset="1" stop-color="white"/>
</linearGradient>
<linearGradient id="paint38_linear_200_2" x1="475.718" y1="552.252" x2="475.718" y2="195.757" gradientUnits="userSpaceOnUse">
<stop stop-color="#386E9F"/>
<stop offset="1" stop-color="white"/>
</linearGradient>
<linearGradient id="paint39_linear_200_2" x1="489.03" y1="688.13" x2="489.03" y2="464.809" gradientUnits="userSpaceOnUse">
<stop stop-color="#03192E"/>
<stop offset="0.5" stop-color="#223C6A"/>
<stop offset="1" stop-color="#4A74A2"/>
</linearGradient>
<linearGradient id="paint40_linear_200_2" x1="345.964" y1="749.054" x2="345.964" y2="481.024" gradientUnits="userSpaceOnUse">
<stop stop-color="#03192E"/>
<stop offset="0.5" stop-color="#223C6A"/>
<stop offset="1" stop-color="#4A74A2"/>
</linearGradient>
<linearGradient id="paint41_linear_200_2" x1="480.758" y1="527.824" x2="480.758" y2="861.59" gradientUnits="userSpaceOnUse">
<stop stop-color="#FF2A64"/>
<stop offset="1" stop-color="#FFAF48"/>
</linearGradient>
<linearGradient id="paint42_linear_200_2" x1="466.969" y1="986.193" x2="466.969" y2="579.434" gradientUnits="userSpaceOnUse">
<stop stop-color="#386E9F"/>
<stop offset="1" stop-color="white"/>
</linearGradient>
<linearGradient id="paint43_linear_200_2" x1="480.754" y1="1338.72" x2="480.754" y2="647.198" gradientUnits="userSpaceOnUse">
<stop stop-color="#03192E"/>
<stop offset="0.5" stop-color="#223C6A"/>
<stop offset="1" stop-color="#4A74A2"/>
</linearGradient>
<linearGradient id="paint44_linear_200_2" x1="498.467" y1="1444.19" x2="498.467" y2="1184.9" gradientUnits="userSpaceOnUse">
<stop stop-color="#03192E"/>
<stop offset="0.5" stop-color="#223C6A"/>
<stop offset="1" stop-color="#4A74A2"/>
</linearGradient>
<linearGradient id="paint45_linear_200_2" x1="604.332" y1="2298.34" x2="604.332" y2="898.969" gradientUnits="userSpaceOnUse">
<stop stop-color="#03192E"/>
<stop offset="0.5" stop-color="#223C6A"/>
<stop offset="1" stop-color="#4A74A2"/>
</linearGradient>
<linearGradient id="paint46_linear_200_2" x1="604.331" y1="1573.36" x2="604.331" y2="782.264" gradientUnits="userSpaceOnUse">
<stop stop-color="#03192E"/>
<stop offset="0.5" stop-color="#223C6A"/>
<stop offset="1" stop-color="#4A74A2"/>
</linearGradient>
<linearGradient id="paint47_linear_200_2" x1="619.062" y1="1230.04" x2="619.062" y2="790.811" gradientUnits="userSpaceOnUse">
<stop stop-color="#108BB4"/>
<stop offset="1" stop-color="#40C67C"/>
</linearGradient>
<linearGradient id="paint48_linear_200_2" x1="357.178" y1="1311.22" x2="357.178" y2="796.86" gradientUnits="userSpaceOnUse">
<stop/>
<stop offset="1" stop-color="white"/>
</linearGradient>
<linearGradient id="paint49_linear_200_2" x1="357.176" y1="1282.28" x2="357.176" y2="491.182" gradientUnits="userSpaceOnUse">
<stop/>
<stop offset="1" stop-color="white"/>
</linearGradient>
<linearGradient id="paint50_linear_200_2" x1="357.176" y1="1147.23" x2="357.176" y2="686.952" gradientUnits="userSpaceOnUse">
<stop/>
<stop offset="1" stop-color="white"/>
</linearGradient>
<linearGradient id="paint51_linear_200_2" x1="342.447" y1="995.101" x2="342.447" y2="456.001" gradientUnits="userSpaceOnUse">
<stop/>
<stop offset="1" stop-color="white"/>
</linearGradient>
<linearGradient id="paint52_linear_200_2" x1="481.075" y1="1076.92" x2="481.075" y2="759.871" gradientUnits="userSpaceOnUse">
<stop stop-color="#386E9F"/>
<stop offset="1" stop-color="white"/>
</linearGradient>
<linearGradient id="paint53_linear_200_2" x1="480.753" y1="1066.09" x2="480.753" y2="795.559" gradientUnits="userSpaceOnUse">
<stop stop-color="white"/>
<stop offset="1" stop-color="#B5E0F7"/>
</linearGradient>
<linearGradient id="paint54_linear_200_2" x1="481.075" y1="1194.72" x2="481.075" y2="811.319" gradientUnits="userSpaceOnUse">
<stop stop-color="#386E9F"/>
<stop offset="1" stop-color="white"/>
</linearGradient>
<linearGradient id="paint55_linear_200_2" x1="480.753" y1="1128.43" x2="480.753" y2="857.893" gradientUnits="userSpaceOnUse">
<stop stop-color="white"/>
<stop offset="1" stop-color="#B5E0F7"/>
</linearGradient>
<linearGradient id="paint56_linear_200_2" x1="481.075" y1="1188.97" x2="481.075" y2="1036.48" gradientUnits="userSpaceOnUse">
<stop stop-color="#386E9F"/>
<stop offset="1" stop-color="white"/>
</linearGradient>
<linearGradient id="paint57_linear_200_2" x1="480.753" y1="1190.76" x2="480.753" y2="920.226" gradientUnits="userSpaceOnUse">
<stop stop-color="white"/>
<stop offset="1" stop-color="#B5E0F7"/>
</linearGradient>
<linearGradient id="paint58_linear_200_2" x1="726.526" y1="1081.72" x2="726.526" y2="691.388" gradientUnits="userSpaceOnUse">
<stop stop-color="#03192E"/>
<stop offset="0.5" stop-color="#223C6A"/>
<stop offset="1" stop-color="#4A74A2"/>
</linearGradient>
<linearGradient id="paint59_linear_200_2" x1="726.523" y1="1264.73" x2="726.523" y2="924.702" gradientUnits="userSpaceOnUse">
<stop stop-color="#386E9F"/>
<stop offset="1" stop-color="white"/>
</linearGradient>
<linearGradient id="paint60_linear_200_2" x1="1491.82" y1="610.567" x2="407.975" y2="1331.93" gradientUnits="userSpaceOnUse">
<stop stop-color="#FF2A64"/>
<stop offset="1" stop-color="#FFAF48"/>
</linearGradient>
<linearGradient id="paint61_linear_200_2" x1="593.132" y1="1256.27" x2="511.784" y2="1037.35" gradientUnits="userSpaceOnUse">
<stop stop-color="#386E9F"/>
<stop offset="1" stop-color="white"/>
</linearGradient>
<linearGradient id="paint62_linear_200_2" x1="622.106" y1="1067.5" x2="834.252" y2="1359.4" gradientUnits="userSpaceOnUse">
<stop stop-color="#03192E"/>
<stop offset="0.5" stop-color="#223C6A"/>
<stop offset="1" stop-color="#4A74A2"/>
</linearGradient>
<linearGradient id="paint63_linear_200_2" x1="574.538" y1="959.919" x2="768.337" y2="1274.94" gradientUnits="userSpaceOnUse">
<stop stop-color="#03192E"/>
<stop offset="0.5" stop-color="#223C6A"/>
<stop offset="1" stop-color="#4A74A2"/>
</linearGradient>
<linearGradient id="paint64_linear_200_2" x1="565.745" y1="1136.27" x2="659.054" y2="1394.66" gradientUnits="userSpaceOnUse">
<stop stop-color="#03192E"/>
<stop offset="0.5" stop-color="#223C6A"/>
<stop offset="1" stop-color="#4A74A2"/>
</linearGradient>
<linearGradient id="paint65_linear_200_2" x1="528.906" y1="1045.15" x2="635.376" y2="1322.09" gradientUnits="userSpaceOnUse">
<stop stop-color="white"/>
<stop offset="1" stop-color="#B5E0F7"/>
</linearGradient>
<linearGradient id="paint66_linear_200_2" x1="516.303" y1="1389.31" x2="580.908" y2="1173.97" gradientUnits="userSpaceOnUse">
<stop stop-color="#03192E"/>
<stop offset="0.5" stop-color="#223C6A"/>
<stop offset="1" stop-color="#4A74A2"/>
</linearGradient>
<linearGradient id="paint67_linear_200_2" x1="532.022" y1="1394.02" x2="596.622" y2="1178.69" gradientUnits="userSpaceOnUse">
<stop stop-color="#03192E"/>
<stop offset="0.5" stop-color="#223C6A"/>
<stop offset="1" stop-color="#4A74A2"/>
</linearGradient>
<linearGradient id="paint68_linear_200_2" x1="752.784" y1="1051.01" x2="752.784" y2="763.076" gradientUnits="userSpaceOnUse">
<stop stop-color="#03192E"/>
<stop offset="0.5" stop-color="#223C6A"/>
<stop offset="1" stop-color="#4A74A2"/>
</linearGradient>
<linearGradient id="paint69_linear_200_2" x1="764.716" y1="1176.02" x2="764.716" y2="933.452" gradientUnits="userSpaceOnUse">
<stop stop-color="#03192E"/>
<stop offset="0.5" stop-color="#223C6A"/>
<stop offset="1" stop-color="#4A74A2"/>
</linearGradient>
<linearGradient id="paint70_linear_200_2" x1="350.894" y1="781.437" x2="350.894" y2="444.059" gradientUnits="userSpaceOnUse">
<stop stop-color="#386E9F"/>
<stop offset="1" stop-color="white"/>
</linearGradient>
<linearGradient id="paint71_linear_200_2" x1="334.699" y1="746.15" x2="334.699" y2="509.782" gradientUnits="userSpaceOnUse">
<stop stop-color="white"/>
<stop offset="1" stop-color="#B5E0F7"/>
</linearGradient>
<linearGradient id="paint72_linear_200_2" x1="334.699" y1="649.846" x2="334.699" y2="490.005" gradientUnits="userSpaceOnUse">
<stop stop-color="#03192E"/>
<stop offset="0.5" stop-color="#223C6A"/>
<stop offset="1" stop-color="#4A74A2"/>
</linearGradient>
<linearGradient id="paint73_linear_200_2" x1="396.812" y1="779.041" x2="396.812" y2="586.441" gradientUnits="userSpaceOnUse">
<stop stop-color="#03192E"/>
<stop offset="0.5" stop-color="#223C6A"/>
<stop offset="1" stop-color="#4A74A2"/>
</linearGradient>
<linearGradient id="paint74_linear_200_2" x1="329.102" y1="650.442" x2="329.102" y2="545.126" gradientUnits="userSpaceOnUse">
<stop stop-color="#108BB4"/>
<stop offset="1" stop-color="#40C67C"/>
</linearGradient>
<linearGradient id="paint75_linear_200_2" x1="600.553" y1="781.437" x2="600.553" y2="444.059" gradientUnits="userSpaceOnUse">
<stop stop-color="#386E9F"/>
<stop offset="1" stop-color="white"/>
</linearGradient>
<linearGradient id="paint76_linear_200_2" x1="616.746" y1="746.15" x2="616.746" y2="509.782" gradientUnits="userSpaceOnUse">
<stop stop-color="white"/>
<stop offset="1" stop-color="#B5E0F7"/>
</linearGradient>
<linearGradient id="paint77_linear_200_2" x1="616.746" y1="649.846" x2="616.746" y2="490.005" gradientUnits="userSpaceOnUse">
<stop stop-color="#03192E"/>
<stop offset="0.5" stop-color="#223C6A"/>
<stop offset="1" stop-color="#4A74A2"/>
</linearGradient>
<linearGradient id="paint78_linear_200_2" x1="554.632" y1="779.042" x2="554.632" y2="586.438" gradientUnits="userSpaceOnUse">
<stop stop-color="#03192E"/>
<stop offset="0.5" stop-color="#223C6A"/>
<stop offset="1" stop-color="#4A74A2"/>
</linearGradient>
<linearGradient id="paint79_linear_200_2" x1="475.715" y1="801.177" x2="475.715" y2="631.211" gradientUnits="userSpaceOnUse">
<stop stop-color="#386E9F"/>
<stop offset="1" stop-color="white"/>
</linearGradient>
<linearGradient id="paint80_linear_200_2" x1="475.942" y1="888.505" x2="475.942" y2="620.525" gradientUnits="userSpaceOnUse">
<stop stop-color="#386E9F"/>
<stop offset="1" stop-color="white"/>
</linearGradient>
<linearGradient id="paint81_linear_200_2" x1="475.723" y1="1416.98" x2="475.723" y2="611.024" gradientUnits="userSpaceOnUse">
<stop stop-color="#FF2A64"/>
<stop offset="1" stop-color="#FFAF48"/>
</linearGradient>
<linearGradient id="paint82_linear_200_2" x1="622.34" y1="650.442" x2="622.34" y2="545.126" gradientUnits="userSpaceOnUse">
<stop stop-color="#108BB4"/>
<stop offset="1" stop-color="#40C67C"/>
</linearGradient>
<linearGradient id="paint83_linear_200_2" x1="244.888" y1="1220.51" x2="244.888" y2="170.104" gradientUnits="userSpaceOnUse">
<stop stop-color="#03192E"/>
<stop offset="0.5" stop-color="#223C6A"/>
<stop offset="1" stop-color="#4A74A2"/>
</linearGradient>
<linearGradient id="paint84_linear_200_2" x1="244.887" y1="1654.84" x2="244.887" y2="621.217" gradientUnits="userSpaceOnUse">
<stop stop-color="#03192E"/>
<stop offset="0.5" stop-color="#223C6A"/>
<stop offset="1" stop-color="#4A74A2"/>
</linearGradient>
<linearGradient id="paint85_linear_200_2" x1="358.25" y1="2094.97" x2="358.25" y2="738.316" gradientUnits="userSpaceOnUse">
<stop stop-color="#FF2A64"/>
<stop offset="1" stop-color="#FFAF48"/>
</linearGradient>
<linearGradient id="paint86_linear_200_2" x1="379.943" y1="1679.26" x2="379.943" y2="955.374" gradientUnits="userSpaceOnUse">
<stop stop-color="#03192E"/>
<stop offset="0.5" stop-color="#223C6A"/>
<stop offset="1" stop-color="#4A74A2"/>
</linearGradient>
<linearGradient id="paint87_linear_200_2" x1="131.525" y1="2094.97" x2="131.525" y2="738.316" gradientUnits="userSpaceOnUse">
<stop stop-color="#FF2A64"/>
<stop offset="1" stop-color="#FFAF48"/>
</linearGradient>
<linearGradient id="paint88_linear_200_2" x1="109.83" y1="1679.26" x2="109.83" y2="955.374" gradientUnits="userSpaceOnUse">
<stop stop-color="#03192E"/>
<stop offset="0.5" stop-color="#223C6A"/>
<stop offset="1" stop-color="#4A74A2"/>
</linearGradient>
<linearGradient id="paint89_linear_200_2" x1="244.888" y1="1293.45" x2="244.888" y2="778.441" gradientUnits="userSpaceOnUse">
<stop stop-color="#386E9F"/>
<stop offset="1" stop-color="white"/>
</linearGradient>
<linearGradient id="paint90_linear_200_2" x1="244.887" y1="1258.76" x2="244.887" y2="836.261" gradientUnits="userSpaceOnUse">
<stop stop-color="#03192E"/>
<stop offset="0.5" stop-color="#223C6A"/>
<stop offset="1" stop-color="#4A74A2"/>
</linearGradient>
<linearGradient id="paint91_linear_200_2" x1="212.455" y1="1020.69" x2="212.455" y2="1107.03" gradientUnits="userSpaceOnUse">
<stop stop-color="white"/>
<stop offset="1" stop-color="#B5E0F7"/>
</linearGradient>
<linearGradient id="paint92_linear_200_2" x1="280.786" y1="1020.69" x2="280.786" y2="1107.04" gradientUnits="userSpaceOnUse">
<stop stop-color="white"/>
<stop offset="1" stop-color="#B5E0F7"/>
</linearGradient>
<linearGradient id="paint93_linear_200_2" x1="244.885" y1="1080.51" x2="244.885" y2="1386.77" gradientUnits="userSpaceOnUse">
<stop stop-color="white"/>
<stop offset="1" stop-color="#B5E0F7"/>
</linearGradient>
<linearGradient id="paint94_linear_200_2" x1="205.557" y1="1192.91" x2="205.724" y2="1133.14" gradientUnits="userSpaceOnUse">
<stop stop-color="#03192E"/>
<stop offset="0.5" stop-color="#223C6A"/>
<stop offset="1" stop-color="#4A74A2"/>
</linearGradient>
<linearGradient id="paint95_linear_200_2" x1="283.486" y1="1193.13" x2="283.653" y2="1133.36" gradientUnits="userSpaceOnUse">
<stop stop-color="#03192E"/>
<stop offset="0.5" stop-color="#223C6A"/>
<stop offset="1" stop-color="#4A74A2"/>
</linearGradient>
<linearGradient id="paint96_linear_200_2" x1="475.724" y1="722.179" x2="475.724" y2="381.04" gradientUnits="userSpaceOnUse">
<stop stop-color="#386E9F"/>
<stop offset="1" stop-color="white"/>
</linearGradient>
<linearGradient id="paint97_linear_200_2" x1="475.731" y1="818.519" x2="475.731" y2="337.608" gradientUnits="userSpaceOnUse">
<stop stop-color="white"/>
<stop offset="1" stop-color="#B5E0F7"/>
</linearGradient>
<linearGradient id="paint98_linear_200_2" x1="411.346" y1="550.55" x2="411.346" y2="954.906" gradientUnits="userSpaceOnUse">
<stop stop-color="white"/>
<stop offset="1" stop-color="#B5E0F7"/>
</linearGradient>
<linearGradient id="paint99_linear_200_2" x1="498.994" y1="550.553" x2="498.994" y2="954.892" gradientUnits="userSpaceOnUse">
<stop stop-color="white"/>
<stop offset="1" stop-color="#B5E0F7"/>
</linearGradient>
<linearGradient id="paint100_linear_200_2" x1="561.954" y1="550.553" x2="561.954" y2="954.888" gradientUnits="userSpaceOnUse">
<stop stop-color="white"/>
<stop offset="1" stop-color="#B5E0F7"/>
</linearGradient>
<linearGradient id="paint101_linear_200_2" x1="348.146" y1="676.157" x2="348.146" y2="413.659" gradientUnits="userSpaceOnUse">
<stop stop-color="#03192E"/>
<stop offset="0.5" stop-color="#223C6A"/>
<stop offset="1" stop-color="#4A74A2"/>
</linearGradient>
<linearGradient id="paint102_linear_200_2" x1="348.147" y1="584.451" x2="348.147" y2="441.087" gradientUnits="userSpaceOnUse">
<stop stop-color="#386E9F"/>
<stop offset="1" stop-color="white"/>
</linearGradient>
</defs>
</svg>
